<?xml version="1.0" encoding="UTF-8" standalone="no"?>
<svg
   xmlns:dc="http://purl.org/dc/elements/1.1/"
   xmlns:cc="http://creativecommons.org/ns#"
   xmlns:rdf="http://www.w3.org/1999/02/22-rdf-syntax-ns#"
   xmlns:svg="http://www.w3.org/2000/svg"
   xmlns="http://www.w3.org/2000/svg"
   xmlns:sodipodi="http://sodipodi.sourceforge.net/DTD/sodipodi-0.dtd"
   xmlns:inkscape="http://www.inkscape.org/namespaces/inkscape"
   width="1920"
   height="1080"
   viewBox="0 0 507.99986 285.74999"
   version="1.1"
   id="svg8"
   inkscape:version="1.0 (4035a4fb49, 2020-05-01)"
   sodipodi:docname="Indian Gate.svg"
   inkscape:export-filename="C:\Users\parth\Downloads\homebg.png"
   inkscape:export-xdpi="96"
   inkscape:export-ydpi="96">
  <defs
     id="defs2" />
  <sodipodi:namedview
     id="base"
     pagecolor="#ffffff"
     bordercolor="#666666"
     borderopacity="1.0"
     inkscape:pageopacity="0.0"
     inkscape:pageshadow="2"
     inkscape:zoom="0.27920731"
     inkscape:cx="1131.8666"
     inkscape:cy="310.31886"
     inkscape:document-units="mm"
     inkscape:current-layer="g70"
     inkscape:document-rotation="0"
     showgrid="false"
     units="px"
     inkscape:window-width="1920"
     inkscape:window-height="1001"
     inkscape:window-x="-9"
     inkscape:window-y="-9"
     inkscape:window-maximized="1" />
  <metadata
     id="metadata5">
    <rdf:RDF>
      <cc:Work
         rdf:about="">
        <dc:format>image/svg+xml</dc:format>
        <dc:type
           rdf:resource="http://purl.org/dc/dcmitype/StillImage" />
        <dc:title></dc:title>
      </cc:Work>
    </rdf:RDF>
  </metadata>
  <g
     inkscape:label="Layer 1"
     inkscape:groupmode="layer"
     id="layer1">
    <path
       inkscape:export-ydpi="96"
       inkscape:export-xdpi="96"
       inkscape:export-filename="C:\Users\parth\Downloads\homebg.png"
       id="path6"
       d="m 255.36403,51.02582 c 60.51409,0 109.54564,45.606527 109.54564,101.81684 0,56.24463 -49.06844,101.81687 -109.54564,101.81687 -60.51408,0 -109.54559,-45.60656 -109.54559,-101.81687 0,-56.244634 49.03151,-101.81684 109.54559,-101.81684 z m 0.44308,16.437568 2.9168,61.803902 20.01135,-58.98996 c -3.61828,-1.098121 -5.75972,-4.632716 -4.91054,-8.098668 -3.6183,-0.617701 -7.31042,-1.098133 -11.03948,-1.338342 -0.14767,3.534582 -3.17524,6.417166 -6.97813,6.623068 z m 23.74042,3.019841 -14.39931,60.396921 35.77677,-52.160982 c -3.17524,-1.956032 -4.28287,-5.868106 -2.47373,-8.9909 -3.32294,-1.50993 -6.79354,-2.813942 -10.30106,-3.980714 -1.10764,3.397343 -4.83668,5.456326 -8.60267,4.735675 z m 22.11592,8.613409 -30.7186,54.871982 49.06846,-41.797408 c -2.54754,-2.642362 -2.51062,-6.657396 0.11081,-9.265429 -2.80602,-2.264894 -5.75974,-4.358184 -8.82419,-6.314217 -2.03069,3.019844 -6.20281,4.083644 -9.63648,2.505072 z m 18.97753,13.657955 -44.97017,45.606527 59.0372,-28.55125 c -1.69837,-3.15712 -0.5538,-7.03488 2.69528,-8.92229 -2.10453,-2.848264 -4.35674,-5.593573 -6.79355,-8.201627 -2.80601,2.402163 -7.1258,2.436472 -9.96876,0.06855 z m 14.51009,17.741617 -56.12046,33.25259 64.98159,-13.38337 c -0.77535,-3.46599 1.43992,-6.93193 5.09513,-7.99577 -1.21839,-3.29435 -2.65833,-6.48579 -4.28287,-9.57427 -3.39676,1.68151 -7.56885,0.68633 -9.67339,-2.29918 z m 9.08264,20.65848 -63.46774,18.59948 66.49532,2.71102 c 0.22152,-3.53459 3.28597,-6.34854 7.12579,-6.48581 -0.29535,-3.46596 -0.77533,-6.8976 -1.43991,-10.26062 -3.76599,0.75498 -7.53195,-1.20107 -8.71346,-4.56407 z m 2.99064,22.09977 -66.49535,2.71101 63.46778,18.59949 c 1.1815,-3.36301 4.9844,-5.35335 8.71346,-4.52975 0.66459,-3.36303 1.18149,-6.79465 1.43994,-10.26063 -3.80292,-0.17157 -6.9043,-2.98551 -7.12583,-6.52012 z m -3.21215,22.09977 -64.98159,-13.38339 56.12046,33.25263 c 2.10454,-2.95123 6.31356,-3.9807 9.67339,-2.29919 1.62454,-3.0885 3.02755,-6.31424 4.28287,-9.5743 -3.69211,-1.0638 -5.87048,-4.52978 -5.09513,-7.99575 z m -9.30419,20.55556 -59.0372,-28.55126 44.97017,45.60652 c 2.84296,-2.36783 7.16275,-2.3335 9.96876,0.10298 2.43681,-2.60805 4.68902,-5.35336 6.79355,-8.20162 -3.24908,-1.92174 -4.39365,-5.79947 -2.69528,-8.9566 z m -14.6947,17.60433 -49.06846,-41.76311 30.7186,54.87198 c 3.39673,-1.57854 7.56882,-0.51473 9.59952,2.50512 3.06446,-1.95605 6.01817,-4.04933 8.82421,-6.31423 -2.5476,-2.64237 -2.58449,-6.65738 -0.0739,-9.29976 z m -19.08832,13.48635 -35.77677,-52.16097 14.39931,60.39691 c 3.72905,-0.72062 7.45811,1.33837 8.60267,4.73569 3.54446,-1.13245 6.97812,-2.47079 10.30106,-3.98071 -1.80914,-3.1228 -0.70151,-7.03487 2.47373,-8.99092 z m -22.18973,8.44185 -20.01135,-58.98994 -2.9168,61.8039 c 3.80289,0.20589 6.83046,3.05414 6.97813,6.62306 3.72906,-0.27453 7.42118,-0.72066 11.03948,-1.33835 -0.84918,-3.46596 1.29226,-7.00054 4.91054,-8.09867 z m -23.81425,2.81396 -2.91683,-61.8039 -20.01133,58.98994 c 3.61829,1.09813 5.75974,4.63271 4.91053,8.09867 3.61831,0.61769 7.31045,1.09813 11.03949,1.33835 0.14768,-3.56892 3.17523,-6.41717 6.97814,-6.62306 z m -23.74045,-3.01987 14.39932,-60.39691 -35.77676,52.16097 c 3.17524,1.95605 4.28287,5.86812 2.47372,8.99092 3.32295,1.50992 6.75663,2.81394 10.30107,3.98071 1.10761,-3.39732 4.83667,-5.45631 8.60265,-4.73569 z m -22.11588,-8.64774 30.71857,-54.87196 -49.06846,41.79741 c 2.54758,2.64238 2.51065,6.65739 -0.11079,9.26544 2.80599,2.26489 5.75972,4.35818 8.8611,6.31423 1.99375,-3.01985 6.16589,-4.08367 9.59955,-2.50512 z m -18.97757,-13.62362 44.97022,-45.60652 -59.03724,28.55126 c 1.69839,3.15711 0.55384,7.03487 -2.69524,8.92228 2.10448,2.84826 4.3567,5.59358 6.79351,8.20161 2.80603,-2.40213 7.12581,-2.43646 9.96875,-0.0685 z m -14.51008,-17.7759 56.12043,-33.25262 -64.98154,13.3834 c 0.77535,3.46595 -1.43993,6.93194 -5.09513,7.99573 1.21841,3.29438 2.65832,6.48582 4.28286,9.57428 3.35985,-1.64717 7.56888,-0.65202 9.67338,2.29921 z m -9.08264,-20.62419 63.46778,-18.59949 -66.49533,-2.71101 c -0.22153,3.53461 -3.28599,6.34855 -7.12583,6.48582 0.25846,3.50028 0.77536,6.89757 1.43995,10.26059 3.76598,-0.78926 7.53195,1.20108 8.71343,4.56409 z m -3.02755,-22.13409 66.49533,-2.71099 -63.46778,-18.59951 c -1.18148,3.36301 -4.98439,5.35337 -8.71343,4.56409 -0.66459,3.36299 -1.18149,6.79465 -1.43995,10.26061 3.83984,0.13726 6.94123,2.9512 7.12583,6.4858 z m 3.24907,-22.06544 64.98155,13.38337 -56.12043,-33.25259 c -2.1045,2.9512 -6.31353,3.98069 -9.67338,2.29918 -1.62454,3.08848 -3.02754,6.27992 -4.28286,9.57427 3.69212,1.02952 5.87048,4.52978 5.09512,7.99577 z m 9.30418,-20.55556 59.03724,28.55125 -44.97022,-45.606527 c -2.84294,2.367832 -7.16272,2.333523 -9.96875,-0.10299 -2.43681,2.608051 -4.68903,5.353365 -6.79351,8.235957 3.24908,1.88739 4.39363,5.76514 2.69524,8.92228 z m 14.6947,-17.638658 49.06846,41.797408 -30.71857,-54.871982 c -3.39673,1.578572 -7.56886,0.514772 -9.59952,-2.505072 -3.06449,1.956033 -6.01819,4.049323 -8.82422,6.314217 2.54758,2.608033 2.5845,6.623067 0.0739,9.265429 z m 19.08833,-13.486364 35.77676,52.160972 -14.39932,-60.39691 c -3.72904,0.72065 -7.45811,-1.338331 -8.60265,-4.735665 -3.54444,1.132441 -6.97812,2.470772 -10.30107,3.980714 1.80915,3.157103 0.70152,7.069177 -2.47372,8.990889 z m 22.18973,-8.407518 20.01133,58.98996 2.91683,-61.803902 c -3.80291,-0.205902 -6.83046,-3.054164 -6.97814,-6.623068 -3.72904,0.27453 -7.42118,0.720641 -11.03949,1.338342 0.84921,3.465952 -1.29224,6.966235 -4.91053,8.098668 z"
       fill="#ebdfcc"
       clip-rule="evenodd"
       fill-rule="evenodd"
       style="opacity:0.8;stroke-width:0.355949" />
    <path
       inkscape:export-ydpi="96"
       inkscape:export-xdpi="96"
       inkscape:export-filename="C:\Users\parth\Downloads\homebg.png"
       id="path8"
       d="m 513.81344,149.47966 v 136.78527 l -516.8987677,0.9952 V 217.52914 C 18.919794,211.66104 62.7085,194.77734 95.346974,148.48448 140.72331,84.141164 215.34132,255.75767 322.26551,250.67881 418.18716,246.14904 461.45898,161.38746 513.81344,149.47966 Z"
       fill="#e0caa2"
       clip-rule="evenodd"
       fill-rule="evenodd"
       style="opacity:0.8;stroke-width:0.355949" />
    <path
       inkscape:export-ydpi="96"
       inkscape:export-xdpi="96"
       inkscape:export-filename="C:\Users\parth\Downloads\homebg.png"
       id="path10"
       d="m 146.18765,145.08837 c 5.16899,3.43162 10.52258,7.58393 16.09769,12.18235 -1.29225,1.78442 -3.43366,3.01984 -5.9074,3.08845 0.25845,3.50027 0.77535,6.89761 1.43995,10.26064 3.72905,-0.78928 7.49502,1.16675 8.7134,4.56408 l 12.18405,-3.56894 1.69838,1.54426 -13.6609,2.81396 c 0.77538,3.46595 -1.43991,6.93191 -5.09513,7.99572 1.21842,3.29438 2.65835,6.4858 4.28287,9.57429 3.39677,-1.68152 7.56889,-0.68632 9.67341,2.2992 l 18.05455,-10.67242 2.06757,1.85307 -19.67907,9.50565 c 1.69836,3.15713 0.55382,7.03489 -2.69528,8.9223 2.10454,2.84825 4.35674,5.59358 6.79356,8.20161 2.80603,-2.43646 7.12583,-2.43646 9.96874,-0.10299 l 16.5777,-16.81502 c 0.73844,0.65199 1.47684,1.26968 2.21527,1.9217 l -18.1653,15.47671 c 2.54757,2.64237 2.51066,6.65737 -0.1108,9.26542 2.80605,2.26489 5.75974,4.35821 8.86112,6.31424 2.03067,-3.01984 6.20278,-4.08365 9.59957,-2.50508 l 10.81794,-19.35449 c 0.73843,0.61769 1.47687,1.20106 2.21529,1.78446 l -12.29482,17.94751 c 3.17523,1.95601 4.2829,5.86809 2.47374,8.99088 3.32293,1.50991 6.75659,2.81397 10.30106,3.9807 1.10762,-3.3973 4.8736,-5.45629 8.60267,-4.73565 l 3.87674,-16.266 c 0.66458,0.48044 1.36608,0.96087 2.06758,1.47561 l -5.09515,15.0306 c 3.6183,1.09814 5.75975,4.63272 4.91054,8.09869 3.61832,0.61769 7.31044,1.09812 11.03948,1.33832 0.14769,-3.56889 3.17525,-6.41714 6.97815,-6.62307 l -0.29538,-6.4858 c 0.47998,0.27455 0.95997,0.54907 1.43995,0.8236 l -0.25846,5.62791 c 3.80291,0.20589 6.83044,3.05415 6.97814,6.62306 3.72907,-0.27455 7.42117,-0.72064 11.03947,-1.33835 -0.1846,-0.72063 -0.22153,-1.47561 -0.14769,-2.19624 6.7197,2.81395 13.58707,5.11314 20.6021,6.72602 -12.07327,4.25522 -25.21727,6.62306 -38.91507,6.62306 -60.51407,0 -109.54564,-45.60652 -109.54564,-101.81685 -0.0739,-2.81395 0.0369,-5.62789 0.29538,-8.37322 z"
       fill="#d3b98c"
       clip-rule="evenodd"
       fill-rule="evenodd"
       style="opacity:0.8;stroke-width:0.355949" />
    <path
       inkscape:export-ydpi="96"
       inkscape:export-xdpi="96"
       inkscape:export-filename="C:\Users\parth\Downloads\homebg.png"
       id="path12"
       d="M -3.0853277,279.05971 H 513.81344 v -32.12019 c -36.18292,1.71583 -93.48483,0.20591 -138.08582,-20.69281 -70.63053,-33.08101 -132.91683,-55.5926 -237.69959,2.81397 -63.726227,35.51751 -112.610076,35.38024 -141.1133577,29.82099 z"
       fill="#ceb68c"
       clip-rule="evenodd"
       fill-rule="evenodd"
       style="opacity:0.8;stroke-width:0.355949" />
    <path
       inkscape:export-ydpi="96"
       inkscape:export-xdpi="96"
       inkscape:export-filename="C:\Users\parth\Downloads\homebg.png"
       id="path14"
       d="m 344.67677,212.45153 c -3.24907,-1.33833 -6.46122,-2.60806 -9.71032,-3.84344 -1.403,1.71582 -2.84293,3.39732 -4.35671,5.0445 -2.80601,-2.43646 -7.1258,-2.43646 -9.96876,-0.10299 l -13.8455,-14.06972 c -1.84605,-0.48044 -3.69213,-0.92656 -5.53818,-1.37265 l 18.79294,15.99144 c -2.54755,2.64238 -2.51066,6.65741 0.1108,9.26544 -2.80602,2.26489 -5.75973,4.35819 -8.82421,6.31423 -2.03069,-3.01984 -6.20278,-4.08365 -9.59954,-2.50511 l -18.16533,-32.42901 c -1.84603,-0.27455 -3.72903,-0.48045 -5.57508,-0.68636 l 23.00197,33.52719 c -3.17522,1.95601 -4.28284,5.86809 -2.47373,8.99088 -3.32292,1.50991 -6.79353,2.81397 -10.30104,3.9807 -1.10765,-3.3973 -4.8367,-5.45629 -8.60267,-4.73565 l -10.19029,-42.48374 c -1.73528,-0.10299 -3.50752,-0.2059 -5.27977,-0.24024 l 14.58394,42.96419 c -3.61829,1.09814 -5.75972,4.63272 -4.91053,8.09869 -3.61831,0.61769 -7.31042,1.09812 -11.0395,1.33832 -0.14767,-3.56889 -3.17523,-6.41714 -6.97813,-6.62307 l 2.17837,-45.88108 c -1.7353,0 -3.4337,0.0344 -5.16899,0.0685 l 2.14143,45.81243 c -3.80289,0.20589 -6.83043,3.05416 -6.97813,6.62306 -3.72906,-0.27453 -7.42117,-0.72064 -11.03948,-1.33834 0.84919,-3.46593 -1.25531,-6.96623 -4.91054,-8.09866 l 14.47316,-42.72395 c -1.77221,0.10299 -3.5075,0.24022 -5.27974,0.41179 l -10.04262,42.10625 c -3.72905,-0.72065 -7.45811,1.33834 -8.60266,4.73568 -3.54443,-1.13246 -6.97813,-2.47079 -10.30105,-3.98071 1.80914,-3.1571 0.73841,-7.03487 -2.47372,-8.99091 l 22.52202,-32.84081 c -1.84606,0.27453 -3.72907,0.54907 -5.57514,0.8579 l -17.68532,31.57113 c -3.39676,-1.57856 -7.56887,-0.51476 -9.59954,2.50509 -3.06448,-1.95604 -6.01818,-4.04934 -8.86113,-6.31423 2.62143,-2.60806 2.62143,-6.62305 0.1108,-9.26542 l 16.76231,-14.27562 c -1.77224,0.48042 -3.54448,0.96087 -5.35359,1.50991 l -12.03639,12.21666 c -2.84294,-2.36782 -7.16273,-2.3335 -9.96877,0.10297 -1.07068,-1.13244 -2.06757,-2.29919 -3.10137,-3.50026 -3.13831,1.26968 -6.35048,2.64236 -9.56264,4.08366 19.97447,24.87939 51.91143,41.04245 87.9097,41.04245 36.84754,0 69.44908,-16.91801 89.31276,-42.86122 z"
       fill="#bda176"
       clip-rule="evenodd"
       fill-rule="evenodd"
       style="opacity:0.8;stroke-width:0.355949" />
    <g
       inkscape:export-ydpi="96"
       inkscape:export-xdpi="96"
       inkscape:export-filename="C:\Users\parth\Downloads\homebg.png"
       id="g70"
       transform="matrix(0.36921341,0,0,0.34316433,-3.0853277,15.57815)"
       style="opacity:0.7">
      <path
         inkscape:export-ydpi="96"
         inkscape:export-xdpi="96"
         inkscape:export-filename="C:\Users\parth\Downloads\homebg.png"
         style="opacity:0.8"
         id="path16"
         d="m 84.8,237.3 c 10.1,0 20.2,0 30.2,0 l 50.6,546.9 c -43.8,0 -87.6,0 -131.5,0 z"
         fill="#584223"
         clip-rule="evenodd"
         fill-rule="evenodd" />
      <path
         inkscape:export-ydpi="96"
         inkscape:export-xdpi="96"
         inkscape:export-filename="C:\Users\parth\Downloads\homebg.png"
         d="m 84.8,237.3 h 25.9 l 50.2,542.6 H 34.6 Z"
         style="clip-rule:evenodd;fill:#72582e;fill-rule:evenodd;opacity:0.8"
         id="polygon18" />
      <g
         inkscape:export-ydpi="96"
         inkscape:export-xdpi="96"
         inkscape:export-filename="C:\Users\parth\Downloads\homebg.png"
         style="opacity:0.8"
         id="g28">
        <path
           d="m 39.1,743.6 h 121.6 l 16.6,-24.5 v 0 -12.2 H 22.5 v 12.2 z"
           style="clip-rule:evenodd;fill:#291e0b;fill-rule:evenodd"
           id="polygon20" />
        <path
           d="M 175.1,706.9 H 22.5 v 11.6 l 14.4,21.2 h 121.6 l 16.6,-24.5 v 0 z"
           style="clip-rule:evenodd;fill:#372b15;fill-rule:evenodd"
           id="polygon22" />
        <path
           d="m 22.5,694.59998 h 154.8 v 24.5 H 22.5 Z"
           style="clip-rule:evenodd;fill:#291e0b;fill-rule:evenodd"
           id="rect24" />
        <path
           d="m 22.5,694.59998 h 152.3 v 21.9 H 22.5 Z"
           style="clip-rule:evenodd;fill:#372b15;fill-rule:evenodd"
           id="rect26" />
      </g>
      <g
         inkscape:export-ydpi="96"
         inkscape:export-xdpi="96"
         inkscape:export-filename="C:\Users\parth\Downloads\homebg.png"
         style="opacity:0.8"
         id="g38">
        <path
           d="m 49.7,599.1 h 96 l 13.2,-19.4 v 0 -9.6 H 36.6 v 9.6 z"
           style="clip-rule:evenodd;fill:#291e0b;fill-rule:evenodd"
           id="polygon30" />
        <path
           d="M 157.1,570.1 H 36.6 v 9.1 L 48,596 h 96 l 13.1,-19.3 v 0 z"
           style="clip-rule:evenodd;fill:#372b15;fill-rule:evenodd"
           id="polygon32" />
        <path
           d="M 36.599998,560.40002 H 158.9 v 19.4 H 36.599998 Z"
           style="clip-rule:evenodd;fill:#291e0b;fill-rule:evenodd"
           id="rect34" />
        <path
           d="M 36.599998,560.40002 H 157 v 17.3 H 36.599998 Z"
           style="clip-rule:evenodd;fill:#372b15;fill-rule:evenodd"
           id="rect36" />
      </g>
      <g
         inkscape:export-ydpi="96"
         inkscape:export-xdpi="96"
         inkscape:export-filename="C:\Users\parth\Downloads\homebg.png"
         style="opacity:0.8"
         id="g48">
        <path
           d="m 61.6,474.5 h 72.3 l 9.8,-14.5 v 0 -7.3 h -92 v 7.3 z"
           style="clip-rule:evenodd;fill:#291e0b;fill-rule:evenodd"
           id="polygon40" />
        <path
           d="M 142.4,452.7 H 51.7 v 6.9 l 8.6,12.6 h 72.2 l 9.9,-14.5 v 0 z"
           style="clip-rule:evenodd;fill:#372b15;fill-rule:evenodd"
           id="polygon42" />
        <path
           d="M 51.700001,445.39999 H 143.7 v 14.6 H 51.700001 Z"
           style="clip-rule:evenodd;fill:#291e0b;fill-rule:evenodd"
           id="rect44" />
        <path
           d="M 51.700001,445.39999 H 142.2 v 13 H 51.700001 Z"
           style="clip-rule:evenodd;fill:#372b15;fill-rule:evenodd"
           id="rect46" />
      </g>
      <g
         inkscape:export-ydpi="96"
         inkscape:export-xdpi="96"
         inkscape:export-filename="C:\Users\parth\Downloads\homebg.png"
         style="opacity:0.8"
         id="g58">
        <path
           d="m 69.9,363.5 h 55.7 l 7.6,-11.2 v 0 -5.6 H 62.3 v 5.6 z"
           style="clip-rule:evenodd;fill:#291e0b;fill-rule:evenodd"
           id="polygon50" />
        <path
           d="M 132.2,346.7 H 62.3 v 5.3 l 6.6,9.7 h 55.7 l 7.6,-11.2 v 0 z"
           style="clip-rule:evenodd;fill:#372b15;fill-rule:evenodd"
           id="polygon52" />
        <path
           d="M 62.299999,341.10001 H 133.2 v 11.2 H 62.299999 Z"
           style="clip-rule:evenodd;fill:#291e0b;fill-rule:evenodd"
           id="rect54" />
        <path
           d="M 62.299999,341.10001 H 132.1 v 10 H 62.299999 Z"
           style="clip-rule:evenodd;fill:#372b15;fill-rule:evenodd"
           id="rect56" />
      </g>
      <g
         inkscape:export-ydpi="96"
         inkscape:export-xdpi="96"
         inkscape:export-filename="C:\Users\parth\Downloads\homebg.png"
         style="opacity:0.8"
         id="g68">
        <path
           d="m 78,278.5 h 39.5 l 5.4,-8 v 0 -3.9 H 72.6 v 3.9 z"
           style="clip-rule:evenodd;fill:#291e0b;fill-rule:evenodd"
           id="polygon60" />
        <path
           d="M 122.2,266.6 H 72.6 v 3.7 l 4.7,6.9 h 39.5 l 5.4,-7.9 v 0 z"
           style="clip-rule:evenodd;fill:#372b15;fill-rule:evenodd"
           id="polygon62" />
        <path
           d="M 72.599998,262.60001 H 122.9 v 8 H 72.599998 Z"
           style="clip-rule:evenodd;fill:#291e0b;fill-rule:evenodd"
           id="rect64" />
        <path
           d="M 72.599998,262.60001 H 122.1 v 7.1 H 72.599998 Z"
           style="clip-rule:evenodd;fill:#372b15;fill-rule:evenodd"
           id="rect66" />
        <path
           id="polygon60-9"
           style="clip-rule:evenodd;opacity:0.7;fill:#291e0b;fill-rule:evenodd;stroke-width:0.779183"
           d="m 85.416543,239.04778 h 30.777737 l 4.20759,-6.23347 v 0 -3.03881 H 81.208946 v 3.03881 z" />
        <path
           id="polygon62-3"
           style="clip-rule:evenodd;opacity:0.7;fill:#372b15;fill-rule:evenodd;stroke-width:0.779183"
           d="M 119.85644,229.7755 H 81.208946 v 2.88298 l 3.662169,5.37636 h 30.777735 l 4.20759,-6.15555 v 0 z" />
        <path
           id="rect64-5"
           style="clip-rule:evenodd;opacity:0.7;fill:#291e0b;fill-rule:evenodd;stroke-width:0.779183"
           d="m 81.208946,226.65877 h 39.192924 v 6.23347 H 81.208946 Z" />
        <path
           id="rect66-5"
           style="clip-rule:evenodd;opacity:0.7;fill:#372b15;fill-rule:evenodd;stroke-width:0.779183"
           d="m 81.208946,226.65877 h 38.569584 v 5.5322 H 81.208946 Z" />
      </g>
    </g>
    <g
       inkscape:export-ydpi="96"
       inkscape:export-xdpi="96"
       inkscape:export-filename="C:\Users\parth\Downloads\homebg.png"
       id="g246"
       transform="matrix(0.36921341,0,0,0.34316433,-3.0853277,15.57815)"
       style="opacity:0.8">
      <g
         id="g154">
        <g
           id="g112">
          <g
             id="g92">
            <g
               id="g80">
              <path
                 d="m 530.70001,735.59998 h 40 v 30.29999 h -40 z"
                 style="clip-rule:evenodd;fill:#3a3018;fill-rule:evenodd"
                 id="rect72" />
              <path
                 d="m 530.70001,735.59998 h 38.5 v 26.9 h -38.5 z"
                 style="clip-rule:evenodd;fill:#54482f;fill-rule:evenodd"
                 id="rect74" />
              <path
                 d="m 530.70001,763.70001 h 53.4 v 19 h -53.4 z"
                 style="clip-rule:evenodd;fill:#1c1808;fill-rule:evenodd"
                 id="rect76" />
              <path
                 d="m 530.70001,763.70001 h 52.5 v 17.9 h -52.5 z"
                 style="clip-rule:evenodd;fill:#2d2711;fill-rule:evenodd"
                 id="rect78" />
            </g>
            <g
               id="g90">
              <path
                 d="m 444.60001,735.59998 h 40 v 30.29999 h -40 z"
                 style="clip-rule:evenodd;fill:#3a3018;fill-rule:evenodd"
                 id="rect82" />
              <path
                 d="m 444.60001,735.59998 h 38.5 v 26.9 h -38.5 z"
                 style="clip-rule:evenodd;fill:#54482f;fill-rule:evenodd"
                 id="rect84" />
              <path
                 d="m 431.10001,763.70001 h 53.4 v 19 h -53.4 z"
                 style="clip-rule:evenodd;fill:#1c1808;fill-rule:evenodd"
                 id="rect86" />
              <path
                 d="m 431.10001,763.70001 h 52.5 v 17.9 h -52.5 z"
                 style="clip-rule:evenodd;fill:#2d2711;fill-rule:evenodd"
                 id="rect88" />
            </g>
          </g>
          <path
             id="path94"
             d="M 573.4,531.4 H 441.9 v 207.1 h 44.4 c 4.3,-18.3 12.2,-30.5 21.3,-30.5 9.1,0 17.1,12.3 21.3,30.5 h 44.4 V 531.4 Z"
             fill="#534628"
             clip-rule="evenodd"
             fill-rule="evenodd" />
          <path
             id="path96"
             d="M 570,531.4 H 441.9 v 203.4 h 41 c 4.3,-18.3 12.2,-30.6 21.3,-30.6 4.2,0 8.2,2.6 11.6,7.2 5,4.4 9.2,12.6 12.1,23.3 h 42 V 531.4 Z"
             fill="#65553a"
             clip-rule="evenodd"
             fill-rule="evenodd" />
          <g
             id="g106">
            <path
               d="m 441.89999,605.29999 h 138.9 v 16.3 h -138.9 z"
               style="clip-rule:evenodd;fill:#201606;fill-rule:evenodd"
               id="rect98" />
            <path
               d="m 441.89999,605.29999 h 138 v 15.3 h -138 z"
               style="clip-rule:evenodd;fill:#372b15;fill-rule:evenodd"
               id="rect100" />
            <path
               d="M 580.8,608.9 H 441.9 v -16.2 h 147.8 z"
               style="clip-rule:evenodd;fill:#201606;fill-rule:evenodd"
               id="polygon102" />
            <path
               d="m 441.9,607.8 v -15.1 h 146.3 l -8.4,15.1 z"
               style="clip-rule:evenodd;fill:#372b15;fill-rule:evenodd"
               id="polygon104" />
          </g>
          <path
             d="M 580.8,557.8 H 441.9 v -5.4 -5.3 h 138.9 l 8.9,5.3 z"
             style="clip-rule:evenodd;fill:#201606;fill-rule:evenodd"
             id="polygon108" />
          <path
             d="m 441.9,556.2 v -3.8 -5.3 h 138.9 l 7.5,4.5 -7.8,4.6 z"
             style="clip-rule:evenodd;fill:#372b15;fill-rule:evenodd"
             id="polygon110" />
        </g>
        <g
           id="g152">
          <g
             id="g134">
            <g
               id="g122">
              <path
                 d="m 194.10001,735.59998 h 40 v 30.29999 h -40 z"
                 style="clip-rule:evenodd;fill:#3a3018;fill-rule:evenodd"
                 id="rect114" />
              <path
                 d="m 194.10001,735.59998 h 38.5 v 26.9 h -38.5 z"
                 style="clip-rule:evenodd;fill:#54482f;fill-rule:evenodd"
                 id="rect116" />
              <path
                 d="m 194.10001,763.70001 h 53.4 v 19 h -53.4 z"
                 style="clip-rule:evenodd;fill:#1c1808;fill-rule:evenodd"
                 id="rect118" />
              <path
                 d="m 194.10001,763.70001 h 52.5 v 17.9 h -52.5 z"
                 style="clip-rule:evenodd;fill:#2d2711;fill-rule:evenodd"
                 id="rect120" />
            </g>
            <g
               id="g132">
              <path
                 d="m 107.9,735.59998 h 40 v 30.29999 h -40 z"
                 style="clip-rule:evenodd;fill:#3a3018;fill-rule:evenodd"
                 id="rect124" />
              <path
                 d="m 107.9,735.59998 h 38.5 v 26.9 h -38.5 z"
                 style="clip-rule:evenodd;fill:#54482f;fill-rule:evenodd"
                 id="rect126" />
              <path
                 d="m 94.5,763.70001 h 53.4 v 19 H 94.5 Z"
                 style="clip-rule:evenodd;fill:#1c1808;fill-rule:evenodd"
                 id="rect128" />
              <path
                 d="M 94.5,763.70001 H 147 v 17.9 H 94.5 Z"
                 style="clip-rule:evenodd;fill:#2d2711;fill-rule:evenodd"
                 id="rect130" />
            </g>
          </g>
          <path
             id="path136"
             d="M 236.8,531.4 H 105.2 v 207.1 h 44.4 c 4.3,-18.3 12.2,-30.5 21.3,-30.5 9.1,0 17.1,12.3 21.3,30.5 h 44.4 V 531.4 Z"
             fill="#534628"
             clip-rule="evenodd"
             fill-rule="evenodd" />
          <path
             id="path138"
             d="M 233.4,531.4 H 105.2 v 203.4 h 41 c 4.3,-18.3 12.2,-30.6 21.3,-30.6 4.2,0 8.2,2.6 11.6,7.2 5,4.4 9.2,12.6 12.1,23.3 h 42 V 531.4 Z"
             fill="#65553a"
             clip-rule="evenodd"
             fill-rule="evenodd" />
          <path
             d="M 97.800003,605.29999 H 236.7 v 16.3 H 97.800003 Z"
             style="clip-rule:evenodd;fill:#201606;fill-rule:evenodd"
             id="rect140" />
          <path
             d="M 97.800003,605.29999 H 235.8 v 15.3 H 97.800003 Z"
             style="clip-rule:evenodd;fill:#372b15;fill-rule:evenodd"
             id="rect142" />
          <path
             d="m 97.8,608.9 h 139 V 592.7 H 88.9 Z"
             style="clip-rule:evenodd;fill:#201606;fill-rule:evenodd"
             id="polygon144" />
          <path
             d="M 235.2,607.8 V 592.7 H 88.9 l 8.3,15.1 z"
             style="clip-rule:evenodd;fill:#372b15;fill-rule:evenodd"
             id="polygon146" />
          <path
             d="m 97.8,557.8 h 139 v -5.4 -5.3 h -139 l -8.9,5.3 z"
             style="clip-rule:evenodd;fill:#201606;fill-rule:evenodd"
             id="polygon148" />
          <path
             d="M 235.2,547.1 H 97.8 l -8.9,5.3 6.4,3.8 h 139.9 v -3.8 z"
             style="clip-rule:evenodd;fill:#372b15;fill-rule:evenodd"
             id="polygon150" />
        </g>
      </g>
      <g
         id="g244">
        <g
           id="g196">
          <g
             id="g174">
            <path
               d="m 228.39999,689.79999 h 46 v 63.6 h -46 z"
               style="clip-rule:evenodd;fill:#54482f;fill-rule:evenodd"
               id="rect156" />
            <path
               d="m 228.39999,689.79999 h 44.6 v 60.1 h -44.6 z"
               style="clip-rule:evenodd;fill:#615137;fill-rule:evenodd"
               id="rect158" />
            <path
               d="m 221.10001,730.79999 h 53.2 v 9.2 h -53.2 z"
               style="clip-rule:evenodd;fill:#2d2711;fill-rule:evenodd"
               id="rect160" />
            <path
               d="m 221.10001,730.79999 h 52.3 v 8.1 h -52.3 z"
               style="clip-rule:evenodd;fill:#38301c;fill-rule:evenodd"
               id="rect162" />
            <path
               d="m 215.5,751.40002 h 58.8 v 15.6 h -58.8 z"
               style="clip-rule:evenodd;fill:#38301c;fill-rule:evenodd"
               id="rect164" />
            <path
               d="m 203,765 h 71.4 v 17.7 H 203 Z"
               style="clip-rule:evenodd;fill:#2d2711;fill-rule:evenodd"
               id="rect166" />
            <path
               d="m 203,765 h 70.3 v 16.5 H 203 Z"
               style="clip-rule:evenodd;fill:#38301c;fill-rule:evenodd"
               id="rect168" />
            <path
               d="m 215.5,751.40002 h 58.8 v 13.6 h -58.8 z"
               style="clip-rule:evenodd;fill:#2d2711;fill-rule:evenodd"
               id="rect170" />
            <path
               d="m 215.5,751.40002 h 57.7 v 12.4 h -57.7 z"
               style="clip-rule:evenodd;fill:#38301c;fill-rule:evenodd"
               id="rect172" />
          </g>
          <g
             id="g194">
            <path
               d="m 404.20001,689.79999 h 46 v 63.6 h -46 z"
               style="clip-rule:evenodd;fill:#54482f;fill-rule:evenodd"
               id="rect176" />
            <path
               d="m 404.20001,689.79999 h 44.6 v 60.1 h -44.6 z"
               style="clip-rule:evenodd;fill:#615137;fill-rule:evenodd"
               id="rect178" />
            <path
               d="m 404.20001,730.79999 h 53.2 v 9.2 h -53.2 z"
               style="clip-rule:evenodd;fill:#2d2711;fill-rule:evenodd"
               id="rect180" />
            <path
               d="m 404.20001,730.79999 h 52.3 v 8.1 h -52.3 z"
               style="clip-rule:evenodd;fill:#38301c;fill-rule:evenodd"
               id="rect182" />
            <path
               d="m 404.20001,751.40002 h 58.8 v 15.6 h -58.8 z"
               style="clip-rule:evenodd;fill:#38301c;fill-rule:evenodd"
               id="rect184" />
            <path
               d="m 404.20001,765 h 71.4 v 17.7 h -71.4 z"
               style="clip-rule:evenodd;fill:#2d2711;fill-rule:evenodd"
               id="rect186" />
            <path
               d="m 404.20001,765 h 70.30001 v 16.5 h -70.30001 z"
               style="clip-rule:evenodd;fill:#38301c;fill-rule:evenodd"
               id="rect188" />
            <path
               d="m 404.20001,751.40002 h 58.8 v 13.6 h -58.8 z"
               style="clip-rule:evenodd;fill:#2d2711;fill-rule:evenodd"
               id="rect190" />
            <path
               d="m 404.20001,751.40002 h 57.7 v 12.4 h -57.7 z"
               style="clip-rule:evenodd;fill:#38301c;fill-rule:evenodd"
               id="rect192" />
          </g>
        </g>
        <g
           id="g218">
          <g
             id="g206">
            <path
               id="path198"
               d="m 425.9,469.7 h 23.9 v -33.3 c 0,-10.1 -7.4,-16.1 -10.7,-17.7 v -5.4 h -2.5 v 5.4 c -3.3,1.5 -10.7,7.6 -10.7,17.7 z"
               fill="#5a4525"
               clip-rule="evenodd"
               fill-rule="evenodd" />
            <path
               id="path200"
               d="m 425.9,469.7 h 21.9 v -33.3 c 0,-10.1 -7.4,-16.1 -10.7,-17.7 v -5.4 h -0.5 v 5.4 c -3.3,1.5 -10.7,7.6 -10.7,17.7 z"
               fill="#72582e"
               clip-rule="evenodd"
               fill-rule="evenodd" />
            <path
               d="M 421.39999,439.79999 H 454.3 v 4.3 h -32.90001 z"
               style="clip-rule:evenodd;fill:#201606;fill-rule:evenodd"
               id="rect202" />
            <path
               d="M 421.39999,439.79999 H 453.8 v 3.9 h -32.40001 z"
               style="clip-rule:evenodd;fill:#372b15;fill-rule:evenodd"
               id="rect204" />
          </g>
          <g
             id="g216">
            <path
               id="path208"
               d="m 232,469.7 h 23.9 v -33.3 c 0,-10.1 -7.4,-16.1 -10.7,-17.7 v -5.4 h -2.5 v 5.4 c -3.3,1.5 -10.7,7.6 -10.7,17.7 z"
               fill="#5a4525"
               clip-rule="evenodd"
               fill-rule="evenodd" />
            <path
               id="path210"
               d="m 232,469.7 h 21.9 v -33.3 c 0,-10.1 -7.4,-16.1 -10.7,-17.7 v -5.4 h -0.5 v 5.4 c -3.3,1.5 -10.7,7.6 -10.7,17.7 z"
               fill="#72582e"
               clip-rule="evenodd"
               fill-rule="evenodd" />
            <path
               d="m 227.5,439.79999 h 32.9 v 4.3 h -32.9 z"
               style="clip-rule:evenodd;fill:#201606;fill-rule:evenodd"
               id="rect212" />
            <path
               d="m 227.5,439.79999 h 32.4 v 3.9 h -32.4 z"
               style="clip-rule:evenodd;fill:#372b15;fill-rule:evenodd"
               id="rect214" />
          </g>
        </g>
        <path
           d="m 232,468 h 217.8 v 94.9 H 232 Z"
           style="clip-rule:evenodd;fill:#5a4525;fill-rule:evenodd"
           id="rect220" />
        <path
           d="m 232,468 h 215.8 v 72.2 H 232 Z"
           style="clip-rule:evenodd;fill:#72582e;fill-rule:evenodd"
           id="rect222" />
        <path
           id="path224"
           d="m 226.2,546.9 h 229.4 v 149.5 h -52.8 c -10,-40.3 -33.9,-68.7 -61.9,-68.7 -28,0 -51.9,28.4 -61.9,68.7 h -52.8 z"
           fill="#65553a"
           clip-rule="evenodd"
           fill-rule="evenodd" />
        <path
           id="path226"
           d="M 226.2,546.9 H 452.4 V 693.1 H 402 c -5.8,-21.6 -15.8,-39.6 -28.2,-51.2 -10.4,-11.1 -22.8,-17.5 -36.1,-17.5 -28,0 -51.9,28.4 -61.9,68.7 h -49.6 z"
           fill="#7c684f"
           clip-rule="evenodd"
           fill-rule="evenodd" />
        <path
           d="m 226.2,484.89999 h 229.39999 v 9.7 H 226.2 Z"
           style="clip-rule:evenodd;fill:#201606;fill-rule:evenodd"
           id="rect228" />
        <path
           d="m 226.2,484.89999 h 228.19999 v 8.5 H 226.2 Z"
           style="clip-rule:evenodd;fill:#372b15;fill-rule:evenodd"
           id="rect230" />
        <g
           id="g236">
          <path
             d="m 219.10001,592.70001 h 243.6 v 9.7 h -243.6 z"
             style="clip-rule:evenodd;fill:#201606;fill-rule:evenodd"
             id="rect232" />
          <path
             d="m 219.10001,592.70001 h 242 v 8 h -242 z"
             style="clip-rule:evenodd;fill:#372b15;fill-rule:evenodd"
             id="rect234" />
        </g>
        <g
           id="g242">
          <path
             d="m 219.10001,542 h 243.6 v 9.7 h -243.6 z"
             style="clip-rule:evenodd;fill:#201606;fill-rule:evenodd"
             id="rect238" />
          <path
             d="m 219.10001,542 h 242 v 8 h -242 z"
             style="clip-rule:evenodd;fill:#372b15;fill-rule:evenodd"
             id="rect240" />
        </g>
      </g>
    </g>
    <g
       inkscape:export-ydpi="96"
       inkscape:export-xdpi="96"
       inkscape:export-filename="C:\Users\parth\Downloads\homebg.png"
       id="g464"
       transform="matrix(0.36921341,0,0,0.34316433,-3.0853277,15.57815)"
       style="opacity:0.8">
      <g
         id="g284">
        <g
           id="g264">
          <path
             d="m 1234.9,676.20001 h 58.7 v 108.1 h -58.7 z"
             style="clip-rule:evenodd;fill:#70522b;fill-rule:evenodd"
             id="rect248" />
          <path
             d="m 1234.9,676.20001 h 57.7 v 107.1 h -57.7 z"
             style="clip-rule:evenodd;fill:#846432;fill-rule:evenodd"
             id="rect250" />
          <path
             d="m 1234.9,726.40002 h 58.7 v 7.6 h -58.7 z"
             style="clip-rule:evenodd;fill:#261004;fill-rule:evenodd"
             id="rect252" />
          <path
             id="path254"
             d="m 1251.1,726.4 h 26.2 v -27.8 c 0,-9.8 -11.1,-15.1 -13.1,-15.1 -2,0 -13.1,5.3 -13.1,15.1 z"
             fill="#1a0701"
             clip-rule="evenodd"
             fill-rule="evenodd" />
          <path
             id="path256"
             d="m 1253.5,726.4 h 23.8 v -27.8 c 0,-6.6 -5,-11.1 -8.9,-13.4 -0.8,-0.3 -1.5,-0.5 -1.9,-0.5 -2,0 -13.1,5.3 -13.1,15.1 v 26.6 z"
             fill="#1b0802"
             clip-rule="evenodd"
             fill-rule="evenodd" />
          <path
             id="path258"
             d="m 1251.1,784.3 h 26.2 v -27.8 c 0,-9.8 -11.1,-15.1 -13.1,-15.1 -2,0 -13.1,5.3 -13.1,15.1 z"
             fill="#1a0701"
             clip-rule="evenodd"
             fill-rule="evenodd" />
          <path
             id="path260"
             d="m 1253.5,784.3 h 23.8 v -27.8 c 0,-6.6 -5,-11.1 -8.9,-13.4 -0.8,-0.3 -1.5,-0.5 -1.9,-0.5 -2,0 -13.1,5.3 -13.1,15.1 v 26.6 z"
             fill="#1b0802"
             clip-rule="evenodd"
             fill-rule="evenodd" />
          <path
             d="m 1234.9,726.40002 h 57.7 v 6.5 h -57.7 z"
             style="clip-rule:evenodd;fill:#442313;fill-rule:evenodd"
             id="rect262" />
        </g>
        <g
           id="g282">
          <path
             d="m 899.40002,676.20001 h 58.70001 v 108.1 h -58.70001 z"
             style="clip-rule:evenodd;fill:#70522b;fill-rule:evenodd"
             id="rect266" />
          <path
             d="m 899.40002,676.20001 h 57.70001 v 107.1 h -57.70001 z"
             style="clip-rule:evenodd;fill:#846432;fill-rule:evenodd"
             id="rect268" />
          <path
             d="m 899.40002,726.40002 h 58.70001 v 7.6 h -58.70001 z"
             style="clip-rule:evenodd;fill:#261004;fill-rule:evenodd"
             id="rect270" />
          <path
             id="path272"
             d="m 915.6,726.4 h 26.2 v -27.8 c 0,-9.8 -11.1,-15.1 -13.1,-15.1 -2,0 -13.1,5.3 -13.1,15.1 z"
             fill="#1a0701"
             clip-rule="evenodd"
             fill-rule="evenodd" />
          <path
             id="path274"
             d="m 918,726.4 h 23.8 v -27.8 c 0,-6.6 -5,-11.1 -8.9,-13.4 -0.8,-0.3 -1.5,-0.5 -1.9,-0.5 -2,0 -13.1,5.3 -13.1,15.1 v 26.6 z"
             fill="#1b0802"
             clip-rule="evenodd"
             fill-rule="evenodd" />
          <path
             id="path276"
             d="m 915.6,784.3 h 26.2 v -27.8 c 0,-9.8 -11.1,-15.1 -13.1,-15.1 -2,0 -13.1,5.3 -13.1,15.1 z"
             fill="#1a0701"
             clip-rule="evenodd"
             fill-rule="evenodd" />
          <path
             id="path278"
             d="m 918,784.3 h 23.8 v -27.8 c 0,-6.6 -5,-11.1 -8.9,-13.4 -0.8,-0.3 -1.5,-0.5 -1.9,-0.5 -2,0 -13.1,5.3 -13.1,15.1 v 26.6 z"
             fill="#1b0802"
             clip-rule="evenodd"
             fill-rule="evenodd" />
          <path
             d="m 899.40002,726.40002 h 57.70001 v 6.5 h -57.70001 z"
             style="clip-rule:evenodd;fill:#442313;fill-rule:evenodd"
             id="rect280" />
        </g>
      </g>
      <g
         id="g382">
        <g
           id="g358">
          <g
             id="g320">
            <path
               d="m 1177.1,630.09998 h 54.6 v 34.2 h -54.6 z"
               style="clip-rule:evenodd;fill:#95754a;fill-rule:evenodd"
               id="rect286" />
            <path
               d="m 1174.2,655.59998 h 60.4 v 8.7 h -60.4 z"
               style="clip-rule:evenodd;fill:#261004;fill-rule:evenodd"
               id="rect288" />
            <path
               d="m 1174.2,655.59998 h 59.9 v 4 h -59.9 z"
               style="clip-rule:evenodd;fill:#442313;fill-rule:evenodd"
               id="rect290" />
            <path
               d="m 1170.6,659.90002 h 67.5 v 124.30001 h -67.5 z"
               style="clip-rule:evenodd;fill:#846432;fill-rule:evenodd"
               id="rect292" />
            <path
               d="m 1170.6,659.90002 h 65.3 v 122.7 h -65.3 z"
               style="clip-rule:evenodd;fill:#95754a;fill-rule:evenodd"
               id="rect294" />
            <path
               d="m 1170.6,717.70001 h 67.5 v 8.7 h -67.5 z"
               style="clip-rule:evenodd;fill:#261004;fill-rule:evenodd"
               id="rect296" />
            <path
               d="m 1170.6,717.70001 h 66.6 v 7.9 h -66.6 z"
               style="clip-rule:evenodd;fill:#442313;fill-rule:evenodd"
               id="rect298" />
            <path
               id="path300"
               d="m 1189.3,717.7 h 30.1 v -32 c 0,-11.3 -12.7,-17.4 -15.1,-17.4 -2.3,0 -15.1,6.1 -15.1,17.4 v 32 z"
               fill="#1a0701"
               clip-rule="evenodd"
               fill-rule="evenodd" />
            <path
               id="path302"
               d="m 1191.5,717.7 h 27.9 v -32 c 0,-6.1 -3.7,-10.7 -7.5,-13.6 -2.4,-1.5 -4.5,-2.2 -5.4,-2.2 -2.3,0 -15.1,6.1 -15.1,17.4 v 30.4 z"
               fill="#1b0802"
               clip-rule="evenodd"
               fill-rule="evenodd" />
            <path
               id="path304"
               d="m 1189.3,784.3 h 30.1 v -32 c 0,-11.3 -12.7,-17.4 -15.1,-17.4 -2.3,0 -15.1,6.1 -15.1,17.4 v 32 z"
               fill="#1a0701"
               clip-rule="evenodd"
               fill-rule="evenodd" />
            <path
               id="path306"
               d="m 1191.5,784.3 h 27.9 v -32 c 0,-6.1 -3.7,-10.7 -7.5,-13.6 -2.4,-1.5 -4.5,-2.2 -5.4,-2.2 -2.3,0 -15.1,6.1 -15.1,17.4 v 30.4 z"
               fill="#1b0802"
               clip-rule="evenodd"
               fill-rule="evenodd" />
            <path
               d="m 1177.1,630.09998 h 54.6 v 25.5 h -54.6 z"
               style="clip-rule:evenodd;fill:#846432;fill-rule:evenodd"
               id="rect308" />
            <path
               d="m 1177.1,630.09998 h 53.3 v 24.5 h -53.3 z"
               style="clip-rule:evenodd;fill:#95754a;fill-rule:evenodd"
               id="rect310" />
            <path
               id="path312"
               d="m 1210.8,597.5 c 14.1,3 24.7,15.4 24.7,30.4 h -62.2 c 0,-15 10.6,-27.5 24.7,-30.4 V 594 c 0,-1.3 1.1,-2.4 2.4,-2.4 h 2 V 588 c -3.1,-1.3 -5.4,-5.4 -5.4,-10.4 0,-4.9 2.3,-9.1 5.4,-10.4 v -8.4 c 0,-1.1 0.9,-1.9 2,-1.9 v 0 c 1.1,0 2,0.9 2,1.9 v 8.4 c 3.1,1.3 5.4,5.4 5.4,10.4 0,4.9 -2.3,9.1 -5.4,10.4 v 3.7 h 2 c 1.3,0 2.4,1.1 2.4,2.4 z"
               fill="#574123"
               clip-rule="evenodd"
               fill-rule="evenodd" />
            <path
               id="path314"
               d="m 1233.6,628 h -60.3 c 0,-15 10.6,-27.5 24.7,-30.4 v -3.5 c 0,-1.3 1.1,-2.4 2.4,-2.4 h 0.2 1.9 V 588 c -3.1,-1.3 -5.4,-5.4 -5.4,-10.4 0,-4.9 2.3,-9.1 5.4,-10.4 v -8.4 c 0,-0.7 0.4,-1.4 1,-1.7 0.6,0.3 1,1 1,1.7 v 8.4 c 3.1,1.3 5.4,5.4 5.4,10.4 0,4.9 -2.3,9.1 -5.4,10.4 v 3.7 h 1.9 0.2 c 1.3,0 2.4,1.1 2.4,2.4 v 3.5 c 14,2.9 24.6,15.4 24.6,30.4 z"
               fill="#72582e"
               clip-rule="evenodd"
               fill-rule="evenodd" />
            <path
               d="m 1170.6,627.59998 h 67.5 v 5.2 h -67.5 z"
               style="clip-rule:evenodd;fill:#261004;fill-rule:evenodd"
               id="rect316" />
            <path
               d="m 1170.6,627.59998 h 66.8 v 4.5 h -66.8 z"
               style="clip-rule:evenodd;fill:#442313;fill-rule:evenodd"
               id="rect318" />
          </g>
          <g
             id="g356">
            <path
               d="M 961.29999,630.09998 H 1015.9 v 34.2 h -54.60001 z"
               style="clip-rule:evenodd;fill:#95754a;fill-rule:evenodd"
               id="rect322" />
            <path
               d="M 958.40002,655.59998 H 1018.8 v 8.7 h -60.39998 z"
               style="clip-rule:evenodd;fill:#261004;fill-rule:evenodd"
               id="rect324" />
            <path
               d="M 958.40002,655.59998 H 1018.3 v 4 h -59.89998 z"
               style="clip-rule:evenodd;fill:#442313;fill-rule:evenodd"
               id="rect326" />
            <path
               d="M 954.79999,659.90002 H 1022.3 v 124.30001 h -67.50001 z"
               style="clip-rule:evenodd;fill:#846432;fill-rule:evenodd"
               id="rect328" />
            <path
               d="M 954.79999,659.90002 H 1020.1 v 122.7 h -65.30001 z"
               style="clip-rule:evenodd;fill:#95754a;fill-rule:evenodd"
               id="rect330" />
            <path
               d="M 954.79999,717.70001 H 1022.3 v 8.7 h -67.50001 z"
               style="clip-rule:evenodd;fill:#261004;fill-rule:evenodd"
               id="rect332" />
            <path
               d="M 954.79999,717.70001 H 1021.4 v 7.9 h -66.60001 z"
               style="clip-rule:evenodd;fill:#442313;fill-rule:evenodd"
               id="rect334" />
            <path
               id="path336"
               d="m 973.5,717.7 h 30.1 v -32 c 0,-11.3 -12.7,-17.4 -15.1,-17.4 -2.3,0 -15.1,6.1 -15.1,17.4 v 32 z"
               fill="#1a0701"
               clip-rule="evenodd"
               fill-rule="evenodd" />
            <path
               id="path338"
               d="m 975.7,717.7 h 27.9 v -32 c 0,-6.1 -3.7,-10.7 -7.5,-13.6 -2.4,-1.5 -4.5,-2.2 -5.4,-2.2 -2.3,0 -15.1,6.1 -15.1,17.4 v 30.4 z"
               fill="#1b0802"
               clip-rule="evenodd"
               fill-rule="evenodd" />
            <path
               id="path340"
               d="m 973.5,784.3 h 30.1 v -32 c 0,-11.3 -12.7,-17.4 -15.1,-17.4 -2.3,0 -15.1,6.1 -15.1,17.4 v 32 z"
               fill="#1a0701"
               clip-rule="evenodd"
               fill-rule="evenodd" />
            <path
               id="path342"
               d="m 975.7,784.3 h 27.9 v -32 c 0,-6.1 -3.7,-10.7 -7.5,-13.6 -2.4,-1.5 -4.5,-2.2 -5.4,-2.2 -2.3,0 -15.1,6.1 -15.1,17.4 v 30.4 z"
               fill="#1b0802"
               clip-rule="evenodd"
               fill-rule="evenodd" />
            <path
               d="M 961.29999,630.09998 H 1015.9 v 25.5 h -54.60001 z"
               style="clip-rule:evenodd;fill:#846432;fill-rule:evenodd"
               id="rect344" />
            <path
               d="M 961.29999,630.09998 H 1014.6 v 24.5 h -53.30001 z"
               style="clip-rule:evenodd;fill:#95754a;fill-rule:evenodd"
               id="rect346" />
            <path
               id="path348"
               d="m 995,597.5 c 14.1,3 24.7,15.4 24.7,30.4 h -62.2 c 0,-15 10.6,-27.5 24.7,-30.4 V 594 c 0,-1.3 1.1,-2.4 2.4,-2.4 h 2 V 588 c -3.1,-1.3 -5.4,-5.4 -5.4,-10.4 0,-4.9 2.3,-9.1 5.4,-10.4 v -8.4 c 0,-1.1 0.9,-1.9 2,-1.9 v 0 c 1.1,0 2,0.9 2,1.9 v 8.4 c 3.1,1.3 5.4,5.4 5.4,10.4 0,4.9 -2.3,9.1 -5.4,10.4 v 3.7 h 2 c 1.3,0 2.4,1.1 2.4,2.4 z"
               fill="#574123"
               clip-rule="evenodd"
               fill-rule="evenodd" />
            <path
               id="path350"
               d="m 1017.8,628 h -60.3 c 0,-15 10.6,-27.5 24.7,-30.4 v -3.5 c 0,-1.3 1.1,-2.4 2.4,-2.4 h 0.2 1.9 V 588 c -3.1,-1.3 -5.4,-5.4 -5.4,-10.4 0,-4.9 2.3,-9.1 5.4,-10.4 v -8.4 c 0,-0.7 0.4,-1.4 1,-1.7 0.6,0.3 1,1 1,1.7 v 8.4 c 3.1,1.3 5.4,5.4 5.4,10.4 0,4.9 -2.3,9.1 -5.4,10.4 v 3.7 h 1.9 0.2 c 1.3,0 2.4,1.1 2.4,2.4 v 3.5 c 14,2.9 24.6,15.4 24.6,30.4 z"
               fill="#72582e"
               clip-rule="evenodd"
               fill-rule="evenodd" />
            <path
               d="M 954.79999,627.59998 H 1022.3 v 5.2 h -67.50001 z"
               style="clip-rule:evenodd;fill:#261004;fill-rule:evenodd"
               id="rect352" />
            <path
               d="M 954.79999,627.59998 H 1021.6 v 4.5 h -66.80001 z"
               style="clip-rule:evenodd;fill:#442313;fill-rule:evenodd"
               id="rect354" />
          </g>
        </g>
        <g
           id="g380">
          <path
             id="path360"
             d="m 1096.5,450.8 v 0 c 1.9,0 3.5,1.6 3.5,3.5 v 15.1 c 5.6,2.3 9.6,9.7 9.6,18.6 0,8.9 -4.1,16.4 -9.6,18.6 v 6.6 h 3.6 c 2.4,0 4.4,2 4.4,4.4 v 13.1 c 0,2.4 -2,4.4 -4.4,4.4 h -7.1 v 0 h -7.1 c -2.4,0 -4.4,-2 -4.4,-4.4 v -13.1 c 0,-2.4 2,-4.4 4.4,-4.4 h 3.6 v -6.6 c -5.6,-2.3 -9.6,-9.7 -9.6,-18.6 0,-8.9 4.1,-16.4 9.6,-18.6 v -15.1 c 0,-1.9 1.5,-3.5 3.5,-3.5 z"
             fill="#8f7041"
             clip-rule="evenodd"
             fill-rule="evenodd" />
          <path
             id="path362"
             d="m 1014.9,784.3 h 163.2 V 600.2 c 0,-42.7 -36.7,-77.7 -81.6,-77.7 v 0 c -44.9,0 -81.6,35 -81.6,77.7 z"
             fill="#95754a"
             clip-rule="evenodd"
             fill-rule="evenodd" />
          <path
             id="path364"
             d="M 1014.9,784.3 H 1172 V 602.9 c 0,-42.7 -36.7,-77.7 -81.6,-77.7 v 0 c -11,0 -21.6,2.1 -31.2,6 -26.2,13 -44.3,39.1 -44.3,69 z"
             fill="#a2815a"
             clip-rule="evenodd"
             fill-rule="evenodd" />
          <path
             id="path366"
             d="m 1067.3,784.3 h 55.1 v -55.5 c 0,-19.6 -23.3,-30.1 -27.5,-30.1 -4.3,0 -27.5,10.5 -27.5,30.1 v 55.5 z"
             fill="#1b0802"
             clip-rule="evenodd"
             fill-rule="evenodd" />
          <path
             d="m 1014.9,627.09998 h 163.2 v 23 h -163.2 z"
             style="clip-rule:evenodd;fill:#574123;fill-rule:evenodd"
             id="rect368" />
          <path
             d="m 1014.9,627.09998 h 161.4 v 21.1 h -161.4 z"
             style="clip-rule:evenodd;fill:#72582e;fill-rule:evenodd"
             id="rect370" />
          <path
             id="path372"
             d="m 1043.4,675.3 v 109 h -14.8 c 0,-41.3 0,-82.5 0,-123.8 h 132.5 c 0,41.3 0,82.5 0,123.8 h -14.8 v -109 z"
             fill="#574123"
             clip-rule="evenodd"
             fill-rule="evenodd" />
          <path
             id="path374"
             d="M 1028.6,784.3 V 660.5 h 131.2 v 123.8 h -13.4 c 0,-36.3 0,-74.1 0,-110.4 H 1042 v 110.4 z"
             fill="#72582e"
             clip-rule="evenodd"
             fill-rule="evenodd" />
          <path
             id="path376"
             d="m 1059.4,784.3 h 35.5 35.5 v -54.4 c 0,-26.6 -30,-40.9 -35.5,-40.9 -5.5,0 -35.5,14.3 -35.5,40.9 z m 10.2,0 v -53.6 c 0,-18.9 21.3,-29.1 25.2,-29.1 3.9,0 25.2,10.2 25.2,29.1 v 53.6 z"
             fill="#261004"
             clip-rule="evenodd"
             fill-rule="evenodd" />
          <path
             id="path378"
             d="m 1104.4,692.4 c -4.3,-2.3 -7.9,-3.5 -9.5,-3.5 -5.5,0 -35.5,14.3 -35.5,40.9 v 53.6 h 10.3 v 0 h -1.5 v -53.6 c 0,-18.9 21.3,-29.1 25.2,-29.1 1.3,0 4.4,1.1 8.1,3.2 v 0 c 7.6,4 18.6,13.1 18.6,26.7 v 52.7 h 8.7 V 729 c 0,-18.1 -13.8,-30.5 -24.4,-36.6 z"
             fill="#442313"
             clip-rule="evenodd"
             fill-rule="evenodd" />
        </g>
      </g>
      <g
         id="g460">
        <g
           id="g420">
          <g
             id="g400">
            <path
               d="m 1306.6,607.79999 h 25 v 176.5 h -25 z"
               style="clip-rule:evenodd;fill:#604325;fill-rule:evenodd"
               id="rect384" />
            <path
               d="m 1306.6,607.79999 h 24.1 v 175.6 h -24.1 z"
               style="clip-rule:evenodd;fill:#70522b;fill-rule:evenodd"
               id="rect386" />
            <path
               d="m 1306.1,591.5 h 26 v 16.3 h -26 z"
               style="clip-rule:evenodd;fill:#604325;fill-rule:evenodd"
               id="rect388" />
            <path
               d="m 1306.1,591.5 h 25.4 v 14.7 h -25.4 z"
               style="clip-rule:evenodd;fill:#70522b;fill-rule:evenodd"
               id="rect390" />
            <path
               d="m 1303,606.5 h 32.1 V 609 H 1303 Z"
               style="clip-rule:evenodd;fill:#442313;fill-rule:evenodd"
               id="rect392" />
            <path
               d="m 1303,650.70001 h 32.1 v 2.5 H 1303 Z"
               style="clip-rule:evenodd;fill:#442313;fill-rule:evenodd"
               id="rect394" />
            <path
               d="m 1303,716.5 h 32.1 V 719 H 1303 Z"
               style="clip-rule:evenodd;fill:#442313;fill-rule:evenodd"
               id="rect396" />
            <path
               id="path398"
               d="m 1319.1,556.6 v 0 c -0.5,0 -0.9,0.4 -0.9,0.9 v 4 c -1.5,0.6 -2.6,2.6 -2.6,4.9 0,2.4 1.1,4.3 2.6,4.9 v 1.7 h -1 c -0.6,0 -1.2,0.5 -1.2,1.2 v 1.7 c -6.7,1.4 -11.7,7.3 -11.7,14.3 h -1.3 v 2.5 h 32.1 v -2.5 h -1.3 c -0.1,-7.1 -5.1,-12.9 -11.7,-14.3 v -1.7 c 0,-0.6 -0.5,-1.2 -1.2,-1.2 h -1 v -1.7 c 1.5,-0.6 2.6,-2.6 2.6,-4.9 0,-2.4 -1.1,-4.3 -2.6,-4.9 v -4 c 0.1,-0.5 -0.3,-0.9 -0.8,-0.9 z"
               fill="#442313"
               clip-rule="evenodd"
               fill-rule="evenodd" />
          </g>
          <g
             id="g418">
            <path
               d="m 1348.6,528.40002 h 36.2 v 255.80001 h -36.2 z"
               style="clip-rule:evenodd;fill:#604325;fill-rule:evenodd"
               id="rect402" />
            <path
               d="m 1348.6,528.40002 h 34.9 v 254.5 h -34.9 z"
               style="clip-rule:evenodd;fill:#70522b;fill-rule:evenodd"
               id="rect404" />
            <path
               d="m 1347.9,504.79999 h 37.7 v 23.6 h -37.7 z"
               style="clip-rule:evenodd;fill:#604325;fill-rule:evenodd"
               id="rect406" />
            <path
               d="m 1347.9,504.79999 h 36.9 v 21.3 h -36.9 z"
               style="clip-rule:evenodd;fill:#70522b;fill-rule:evenodd"
               id="rect408" />
            <path
               d="m 1343.5,526.59998 h 46.6 v 3.6 h -46.6 z"
               style="clip-rule:evenodd;fill:#442313;fill-rule:evenodd"
               id="rect410" />
            <path
               d="m 1343.5,590.59998 h 46.6 v 3.6 h -46.6 z"
               style="clip-rule:evenodd;fill:#442313;fill-rule:evenodd"
               id="rect412" />
            <path
               d="m 1343.5,686 h 46.6 v 3.6 h -46.6 z"
               style="clip-rule:evenodd;fill:#442313;fill-rule:evenodd"
               id="rect414" />
            <path
               id="path416"
               d="m 1366.8,454.3 v 0 c -0.7,0 -1.3,0.6 -1.3,1.3 v 5.8 c -2.1,0.9 -3.7,3.7 -3.7,7.2 0,3.4 1.6,6.3 3.7,7.1 v 2.5 h -1.4 c -0.9,0 -1.7,0.8 -1.7,1.7 v 2.4 c -9.7,2 -16.9,10.5 -17,20.8 h -1.8 v 3.6 h 46.6 v -3.6 h -1.8 c -0.1,-10.2 -7.4,-18.7 -17,-20.8 V 480 c 0,-0.9 -0.8,-1.7 -1.7,-1.7 h -1.4 v -2.5 c 2.1,-0.9 3.7,-3.7 3.7,-7.1 0,-3.4 -1.6,-6.3 -3.7,-7.2 v -5.8 c -0.2,-0.8 -0.8,-1.4 -1.5,-1.4 z"
               fill="#442313"
               clip-rule="evenodd"
               fill-rule="evenodd" />
          </g>
        </g>
        <g
           id="g458">
          <g
             id="g438">
            <path
               d="m 861.29999,607.79999 h 25 v 176.5 h -25 z"
               style="clip-rule:evenodd;fill:#604325;fill-rule:evenodd"
               id="rect422" />
            <path
               d="m 861.29999,607.79999 h 24.1 v 175.6 h -24.1 z"
               style="clip-rule:evenodd;fill:#70522b;fill-rule:evenodd"
               id="rect424" />
            <path
               d="m 860.79999,591.5 h 26 v 16.3 h -26 z"
               style="clip-rule:evenodd;fill:#604325;fill-rule:evenodd"
               id="rect426" />
            <path
               d="m 860.79999,591.5 h 25.4 v 14.7 h -25.4 z"
               style="clip-rule:evenodd;fill:#70522b;fill-rule:evenodd"
               id="rect428" />
            <path
               d="m 857.79999,606.5 h 32.1 v 2.5 h -32.1 z"
               style="clip-rule:evenodd;fill:#442313;fill-rule:evenodd"
               id="rect430" />
            <path
               d="m 857.79999,650.70001 h 32.1 v 2.5 h -32.1 z"
               style="clip-rule:evenodd;fill:#442313;fill-rule:evenodd"
               id="rect432" />
            <path
               d="m 857.79999,716.5 h 32.1 v 2.5 h -32.1 z"
               style="clip-rule:evenodd;fill:#442313;fill-rule:evenodd"
               id="rect434" />
            <path
               id="path436"
               d="m 873.8,556.6 v 0 c -0.5,0 -0.9,0.4 -0.9,0.9 v 4 c -1.5,0.6 -2.6,2.6 -2.6,4.9 0,2.4 1.1,4.3 2.6,4.9 v 1.7 h -1 c -0.6,0 -1.2,0.5 -1.2,1.2 v 1.7 c -6.7,1.4 -11.7,7.3 -11.7,14.3 h -1.3 v 2.5 h 32.1 v -2.5 h -1.3 c -0.1,-7.1 -5.1,-12.9 -11.7,-14.3 v -1.7 c 0,-0.6 -0.5,-1.2 -1.2,-1.2 h -1 v -1.7 c 1.5,-0.6 2.6,-2.6 2.6,-4.9 0,-2.4 -1.1,-4.3 -2.6,-4.9 v -4 c 0.2,-0.5 -0.3,-0.9 -0.8,-0.9 z"
               fill="#442313"
               clip-rule="evenodd"
               fill-rule="evenodd" />
          </g>
          <g
             id="g456">
            <path
               d="m 808.09998,528.40002 h 36.2 v 255.80001 h -36.2 z"
               style="clip-rule:evenodd;fill:#604325;fill-rule:evenodd"
               id="rect440" />
            <path
               d="m 808.09998,528.40002 h 34.9 v 254.5 h -34.9 z"
               style="clip-rule:evenodd;fill:#70522b;fill-rule:evenodd"
               id="rect442" />
            <path
               d="m 807.29999,504.79999 h 37.7 v 23.6 h -37.7 z"
               style="clip-rule:evenodd;fill:#604325;fill-rule:evenodd"
               id="rect444" />
            <path
               d="m 807.29999,504.79999 h 36.9 v 21.3 h -36.9 z"
               style="clip-rule:evenodd;fill:#70522b;fill-rule:evenodd"
               id="rect446" />
            <path
               d="m 802.90002,526.59998 h 46.6 v 3.6 h -46.6 z"
               style="clip-rule:evenodd;fill:#442313;fill-rule:evenodd"
               id="rect448" />
            <path
               d="m 802.90002,590.59998 h 46.6 v 3.6 h -46.6 z"
               style="clip-rule:evenodd;fill:#442313;fill-rule:evenodd"
               id="rect450" />
            <path
               d="m 802.90002,686 h 46.6 v 3.6 h -46.6 z"
               style="clip-rule:evenodd;fill:#442313;fill-rule:evenodd"
               id="rect452" />
            <path
               id="path454"
               d="m 826.2,454.3 v 0 c -0.7,0 -1.3,0.6 -1.3,1.3 v 5.8 c -2.1,0.9 -3.7,3.7 -3.7,7.2 0,3.4 1.6,6.3 3.7,7.1 v 2.5 h -1.4 c -0.9,0 -1.7,0.8 -1.7,1.7 v 2.4 c -9.7,2 -16.9,10.5 -17,20.8 H 803 v 3.6 h 46.6 v -3.6 h -1.8 c -0.1,-10.2 -7.4,-18.7 -17,-20.8 V 480 c 0,-0.9 -0.8,-1.7 -1.7,-1.7 h -1.4 v -2.5 c 2.1,-0.9 3.7,-3.7 3.7,-7.1 0,-3.4 -1.6,-6.3 -3.7,-7.2 v -5.8 c -0.2,-0.8 -0.8,-1.4 -1.5,-1.4 z"
               fill="#442313"
               clip-rule="evenodd"
               fill-rule="evenodd" />
          </g>
        </g>
      </g>
      <path
         d="m 798,773.09998 h 602 v 11.5 H 798 Z"
         style="clip-rule:evenodd;fill:#442313;fill-rule:evenodd"
         id="rect462" />
    </g>
    <g
       inkscape:export-ydpi="96"
       inkscape:export-xdpi="96"
       inkscape:export-filename="C:\Users\parth\Downloads\homebg.png"
       id="g596"
       transform="matrix(0.36921341,0,0,0.34316433,-3.0853277,15.57815)"
       style="opacity:0.8">
      <g
         id="g558">
        <path
           id="path466"
           d="M 645.6,761.8 H 653 V 559.9 c 0,-25.9 21.2,-47 47,-47 v 0 c 25.9,0 47,21.2 47,47 v 201.9 h 7.4 V 474 H 645.6 Z"
           fill="#634425"
           clip-rule="evenodd"
           fill-rule="evenodd" />
        <path
           id="path468"
           d="M 646.2,766.8 H 653 V 559.9 c 0,-25.9 21.2,-47 47,-47 v 0 c 25.9,0 47,21.2 47,47 v 206.8 h 6.8 V 559.9 c 0,-29.6 -24.2,-53.8 -53.8,-53.8 -29.6,0 -53.8,24.2 -53.8,53.8 z"
           fill="#2e1507"
           clip-rule="evenodd"
           fill-rule="evenodd" />
        <path
           id="path470"
           d="m 725.6,520.5 c 12.9,8.4 21.4,23 21.4,39.4 v 206.3 h 6 V 559.4 c 0,-18.4 -9.4,-34.8 -23.6,-44.5 -8.5,-5.6 -18.6,-8.8 -29.4,-8.8 -29.6,0 -53.8,24.2 -53.8,53.8 v 206.3 h 6 V 559.4 c 0,-25.9 21.2,-47 47,-47 v 0 c 9.8,-0.1 18.9,3 26.4,8.1 z"
           fill="#442313"
           clip-rule="evenodd"
           fill-rule="evenodd" />
        <path
           d="m 645.59998,484.20001 h 108.8 v 8.1 h -108.8 z"
           style="clip-rule:evenodd;fill:#2e1507;fill-rule:evenodd"
           id="rect472" />
        <path
           d="m 645.59998,484.20001 h 106.9 v 7 h -106.9 z"
           style="clip-rule:evenodd;fill:#442313;fill-rule:evenodd"
           id="rect474" />
        <g
           id="g556">
          <g
             id="g514">
            <path
               d="m 550.20001,474 h 96.4 v 291.10001 h -96.4 z"
               style="clip-rule:evenodd;fill:#634425;fill-rule:evenodd"
               id="rect476" />
            <path
               d="m 550.20001,474 h 94.9 v 286.39999 h -94.9 z"
               style="clip-rule:evenodd;fill:#8c6b35;fill-rule:evenodd"
               id="rect478" />
            <path
               d="m 564.09998,534.90002 h 68.5 v 204.4 h -68.5 z"
               style="clip-rule:evenodd;fill:#bf9646;fill-rule:evenodd"
               id="rect480" />
            <path
               d="m 564.09998,534.90002 h 67 v 202.9 h -67 z"
               style="clip-rule:evenodd;fill:#d2ab67;fill-rule:evenodd"
               id="rect482" />
            <path
               d="m 573.09998,543.90002 h 50.5 v 186.4 h -50.5 z"
               style="clip-rule:evenodd;fill:#b9903d;fill-rule:evenodd"
               id="rect484" />
            <path
               d="m 574.70001,545.40002 h 48.9 v 184.9 h -48.9 z"
               style="clip-rule:evenodd;fill:#c79d50;fill-rule:evenodd"
               id="rect486" />
            <g
               id="g500">
              <path
                 id="path488"
                 d="m 549.4,562.3 h 97.2 v 6.7 h -97.2 z m 0,86.9 h 97.2 v 6.7 h -97.2 z"
                 fill="#442313"
                 clip-rule="evenodd"
                 fill-rule="evenodd" />
              <path
                 id="path490"
                 d="m 645.1,562.3 v 6.7 h -94.9 v -6.7 z m 0,86.9 v 6.7 h -94.9 v -6.7 z"
                 fill="#552a1a"
                 clip-rule="evenodd"
                 fill-rule="evenodd" />
              <path
                 id="path492"
                 d="m 632.6,562.3 v 6.7 h -68.5 v -6.7 z m 0,86.9 v 6.7 h -68.5 v -6.7 z"
                 fill="#6c3021"
                 clip-rule="evenodd"
                 fill-rule="evenodd" />
              <path
                 id="path494"
                 d="m 631.1,562.3 v 6.7 h -67 v -6.7 z m 0,86.9 v 6.7 h -67 v -6.7 z"
                 fill="#7e3427"
                 clip-rule="evenodd"
                 fill-rule="evenodd" />
              <path
                 id="path496"
                 d="m 573.1,655.9 v -6.7 h 50.5 v 6.7 z m 0,-87 v -6.7 h 50.5 v 6.7 z"
                 fill="#552a1a"
                 clip-rule="evenodd"
                 fill-rule="evenodd" />
              <path
                 id="path498"
                 d="m 574.7,655.9 v -6.7 h 48.9 v 6.7 z m 0,-87 v -6.7 h 48.9 v 6.7 z"
                 fill="#6c3021"
                 clip-rule="evenodd"
                 fill-rule="evenodd" />
            </g>
            <g
               id="g510">
              <path
                 id="path502"
                 d="m 598.4,523.6 c 10.1,0 18.4,-8.3 18.4,-18.4 0,-10.1 -8.3,-18.4 -18.4,-18.4 -10.1,0 -18.4,8.3 -18.4,18.4 0,10.1 8.2,18.4 18.4,18.4 z"
                 fill="#c19a4c"
                 clip-rule="evenodd"
                 fill-rule="evenodd" />
              <path
                 id="path504"
                 d="m 598.4,486.8 c 4.5,0 8.7,1.6 11.9,4.3 3.4,3.3 5.5,8 5.5,13.2 0,10.2 -8.2,18.4 -18.4,18.4 -4.5,0 -8.7,-1.6 -11.9,-4.3 -3.4,-3.3 -5.6,-8 -5.6,-13.2 0.1,-10.1 8.3,-18.4 18.5,-18.4 z"
                 fill="#d2ab67"
                 clip-rule="evenodd"
                 fill-rule="evenodd" />
              <path
                 id="path506"
                 d="m 598.4,516.6 c 6.3,0 11.4,-5.1 11.4,-11.4 0,-6.3 -5.1,-11.4 -11.4,-11.4 -6.3,0 -11.4,5.1 -11.4,11.4 0,6.3 5.1,11.4 11.4,11.4 z"
                 fill="#bf9442"
                 clip-rule="evenodd"
                 fill-rule="evenodd" />
              <path
                 id="path508"
                 d="m 598.4,516.6 c -2.7,0 -5.2,-0.9 -7.1,-2.5 -2,-2.1 -3.3,-4.9 -3.3,-8 0,-6.3 5.1,-11.4 11.4,-11.4 2.7,0 5.2,0.9 7.1,2.5 2,2 3.3,4.9 3.3,8 -0.1,6.3 -5.2,11.4 -11.4,11.4 z"
                 fill="#c79d50"
                 clip-rule="evenodd"
                 fill-rule="evenodd" />
            </g>
            <path
               d="m 539.09998,761.79999 h 118.59999 v 22.3 H 539.09998 Z"
               style="clip-rule:evenodd;fill:#442313;fill-rule:evenodd"
               id="rect512" />
          </g>
          <g
             id="g554">
            <path
               d="m 753.40002,474 h 96.40001 v 291.10001 h -96.40001 z"
               style="clip-rule:evenodd;fill:#634425;fill-rule:evenodd"
               id="rect516" />
            <path
               d="m 753.40002,474 h 94.90001 v 286.39999 h -94.90001 z"
               style="clip-rule:evenodd;fill:#8c6b35;fill-rule:evenodd"
               id="rect518" />
            <path
               d="m 767.40002,534.90002 h 68.5 v 204.4 h -68.5 z"
               style="clip-rule:evenodd;fill:#bf9646;fill-rule:evenodd"
               id="rect520" />
            <path
               d="m 767.40002,534.90002 h 67 v 202.9 h -67 z"
               style="clip-rule:evenodd;fill:#d2ab67;fill-rule:evenodd"
               id="rect522" />
            <path
               d="m 776.40002,543.90002 h 50.5 v 186.4 h -50.5 z"
               style="clip-rule:evenodd;fill:#b9903d;fill-rule:evenodd"
               id="rect524" />
            <path
               d="m 778,545.40002 h 48.9 v 184.9 H 778 Z"
               style="clip-rule:evenodd;fill:#c79d50;fill-rule:evenodd"
               id="rect526" />
            <g
               id="g540">
              <path
                 id="path528"
                 d="m 752.7,562.3 h 97.2 v 6.7 h -97.2 z m 0,86.9 h 97.2 v 6.7 h -97.2 z"
                 fill="#442313"
                 clip-rule="evenodd"
                 fill-rule="evenodd" />
              <path
                 id="path530"
                 d="m 848.4,562.3 v 6.7 h -94.9 v -6.7 z m 0,86.9 v 6.7 h -94.9 v -6.7 z"
                 fill="#552a1a"
                 clip-rule="evenodd"
                 fill-rule="evenodd" />
              <path
                 id="path532"
                 d="m 835.9,562.3 v 6.7 h -68.5 v -6.7 z m 0,86.9 v 6.7 h -68.5 v -6.7 z"
                 fill="#6c3021"
                 clip-rule="evenodd"
                 fill-rule="evenodd" />
              <path
                 id="path534"
                 d="m 834.4,562.3 v 6.7 h -67 v -6.7 z m 0,86.9 v 6.7 h -67 v -6.7 z"
                 fill="#7e3427"
                 clip-rule="evenodd"
                 fill-rule="evenodd" />
              <path
                 id="path536"
                 d="m 776.4,655.9 v -6.7 h 50.5 v 6.7 z m 0,-87 v -6.7 h 50.5 v 6.7 z"
                 fill="#552a1a"
                 clip-rule="evenodd"
                 fill-rule="evenodd" />
              <path
                 id="path538"
                 d="m 778,655.9 v -6.7 h 48.9 v 6.7 z m 0,-87 v -6.7 h 48.9 v 6.7 z"
                 fill="#6c3021"
                 clip-rule="evenodd"
                 fill-rule="evenodd" />
            </g>
            <g
               id="g550">
              <path
                 id="path542"
                 d="m 801.6,523.6 c 10.1,0 18.4,-8.3 18.4,-18.4 0,-10.1 -8.3,-18.4 -18.4,-18.4 -10.1,0 -18.4,8.3 -18.4,18.4 0,10.1 8.3,18.4 18.4,18.4 z"
                 fill="#c19a4c"
                 clip-rule="evenodd"
                 fill-rule="evenodd" />
              <path
                 id="path544"
                 d="m 801.6,486.8 c 4.5,0 8.7,1.6 11.9,4.3 3.4,3.3 5.5,8 5.5,13.2 0,10.2 -8.2,18.4 -18.4,18.4 -4.5,0 -8.7,-1.6 -11.9,-4.3 -3.4,-3.3 -5.5,-8 -5.5,-13.2 0.1,-10.1 8.3,-18.4 18.4,-18.4 z"
                 fill="#d2ab67"
                 clip-rule="evenodd"
                 fill-rule="evenodd" />
              <path
                 id="path546"
                 d="m 801.6,516.6 c 6.3,0 11.4,-5.1 11.4,-11.4 0,-6.3 -5.1,-11.4 -11.4,-11.4 -6.3,0 -11.4,5.1 -11.4,11.4 0,6.3 5.2,11.4 11.4,11.4 z"
                 fill="#bf9442"
                 clip-rule="evenodd"
                 fill-rule="evenodd" />
              <path
                 id="path548"
                 d="m 801.6,516.6 c -2.7,0 -5.2,-0.9 -7.1,-2.5 -2,-2.1 -3.3,-4.9 -3.3,-8 0,-6.3 5.1,-11.4 11.4,-11.4 2.7,0 5.2,0.9 7.1,2.5 2,2 3.3,4.9 3.3,8 0,6.3 -5.1,11.4 -11.4,11.4 z"
                 fill="#c79d50"
                 clip-rule="evenodd"
                 fill-rule="evenodd" />
            </g>
            <path
               d="m 742.29999,761.79999 h 118.6 v 22.3 h -118.6 z"
               style="clip-rule:evenodd;fill:#442313;fill-rule:evenodd"
               id="rect552" />
          </g>
        </g>
      </g>
      <path
         d="m 605.29999,372.10001 h 189.39999 v 31 H 605.29999 Z"
         style="clip-rule:evenodd;fill:#6e522b;fill-rule:evenodd"
         id="rect560" />
      <path
         d="m 571.20001,402.29999 h 257.70001 v 31 H 571.20001 Z"
         style="clip-rule:evenodd;fill:#7f5f30;fill-rule:evenodd"
         id="rect562" />
      <path
         d="m 616.20001,362 h 167.60001 v 10.7 H 616.20001 Z"
         style="clip-rule:evenodd;fill:#6a4d29;fill-rule:evenodd"
         id="rect564" />
      <path
         d="m 547.90002,432.60001 h 304.10001 v 31 H 547.90002 Z"
         style="clip-rule:evenodd;fill:#8c6b35;fill-rule:evenodd"
         id="rect566" />
      <path
         id="path568"
         d="M 839,436.5 H 561 c -5.4,0 -5.4,23.2 0,23.2 h 278 c 5.4,0 5.4,-23.2 0,-23.2 z"
         fill="#a67e37"
         clip-rule="evenodd"
         fill-rule="evenodd" />
      <path
         id="path570"
         d="m 560.5,459.6 c 0.2,0.1 0.4,0.1 0.5,0.1 h 278 c 4.5,0 5.2,-16.2 2.2,-21.6 -0.2,-0.1 -0.4,-0.1 -0.5,-0.1 h -278 c -4.5,0 -5.3,16.3 -2.2,21.6 z"
         fill="#b9903d"
         clip-rule="evenodd"
         fill-rule="evenodd" />
      <path
         id="path572"
         d="M 815.8,429.4 H 583.5 c -5.4,0 -5.4,-23.2 0,-23.2 h 232.3 c 5.4,0 5.4,23.2 0,23.2 z"
         fill="#9a7536"
         clip-rule="evenodd"
         fill-rule="evenodd" />
      <path
         id="path574"
         d="M 815.8,429.4 H 583.5 c -0.2,0 -0.4,0 -0.5,-0.1 -3,-5.3 -2.3,-21.6 2.2,-21.6 h 232.3 c 0.2,0 0.4,0 0.5,0.1 3,5.4 2.3,21.6 -2.2,21.6 z"
         fill="#af8335"
         clip-rule="evenodd"
         fill-rule="evenodd" />
      <path
         id="path576"
         d="M 782.4,376 H 617.6 c -5.4,0 -5.4,23.2 0,23.2 h 164.7 c 5.4,0 5.4,-23.2 0.1,-23.2 z"
         fill="#8c6934"
         clip-rule="evenodd"
         fill-rule="evenodd" />
      <path
         id="path578"
         d="m 617.1,399.1 c 0.2,0.1 0.4,0.1 0.5,0.1 h 164.7 c 4.5,0 5.2,-16.2 2.2,-21.6 -0.2,-0.1 -0.4,-0.1 -0.5,-0.1 H 619.3 c -4.5,0 -5.2,16.3 -2.2,21.6 z"
         fill="#9f7736"
         clip-rule="evenodd"
         fill-rule="evenodd" />
      <path
         id="path580"
         d="m 655.3,353.5 c 48.2,-15.5 47.9,-13.4 89.4,0 v 26.6 h -89.4 z"
         fill="#c59c51"
         clip-rule="evenodd"
         fill-rule="evenodd" />
      <path
         id="path582"
         d="m 655.3,353.5 c 47.6,-15.2 47.9,-13.5 87.6,-0.6 v 25.5 h -87.6 z"
         fill="#d2ab67"
         clip-rule="evenodd"
         fill-rule="evenodd" />
      <g
         id="g588">
        <path
           d="m 534.5,470.70001 h 331 v 9 h -331 z"
           style="clip-rule:evenodd;fill:#2e1507;fill-rule:evenodd"
           id="rect584" />
        <path
           id="path586"
           d="m 864.5,470.7 h -26.6 v 8.1 h 26.6 z m -27.5,0 h -26.6 v 8.1 H 837 Z m -27.6,0 h -26.6 v 8.1 h 26.6 z m -27.6,0 h -26.6 v 8.1 h 26.6 z m -27.6,0 h -26.6 v 8.1 h 26.6 z m -27.6,0 H 700 v 8.1 h 26.6 z m -27.6,0 h -26.6 v 8.1 H 699 Z m -27.6,0 h -26.6 v 8.1 h 26.6 z m -27.5,0 h -26.6 v 8.1 h 26.6 z m -27.6,0 h -26.6 v 8.1 h 26.6 z m -27.6,0 h -26.6 v 8.1 h 26.6 z m -27.6,0 h -26.6 v 8.1 h 26.6 z"
           fill="#442313"
           clip-rule="evenodd"
           fill-rule="evenodd" />
      </g>
      <path
         d="m 527.90002,463.10001 h 344.20002 v 8.1 H 527.90002 Z"
         style="clip-rule:evenodd;fill:#6a4d29;fill-rule:evenodd"
         id="rect590" />
      <path
         id="path592"
         d="m 762.5,381.6 c -4.9,0 -8.9,-4 -8.9,-8.9 0,-4.9 4,-8.9 8.9,-8.9 4.9,0 8.9,4 8.9,8.9 0,4.9 -4,8.9 -8.9,8.9 z m -125,0 c -4.9,0 -8.9,-4 -8.9,-8.9 0,-4.9 4,-8.9 8.9,-8.9 4.9,0 8.9,4 8.9,8.9 0,4.9 -4,8.9 -8.9,8.9 z"
         fill="#c19a4d"
         clip-rule="evenodd"
         fill-rule="evenodd" />
      <path
         id="path594"
         d="m 762.5,381.6 c -2.1,0 -3.9,-0.7 -5.4,-1.9 -1.5,-1.6 -2.3,-3.7 -2.3,-6 0,-4.9 4,-8.9 8.9,-8.9 2.1,0 3.9,0.7 5.4,1.9 1.5,1.6 2.3,3.7 2.3,6 0,5 -4,8.9 -8.9,8.9 z m -130.4,-1.8 c -1.5,-1.6 -2.3,-3.7 -2.3,-6 0,-4.9 4,-8.9 8.9,-8.9 2.1,0 3.9,0.7 5.4,1.9 1.5,1.6 2.3,3.7 2.3,6 0,4.9 -4,8.9 -8.9,8.9 -2.1,-0.1 -3.9,-0.7 -5.4,-1.9 z"
         fill="#d2ab67"
         clip-rule="evenodd"
         fill-rule="evenodd" />
    </g>
    <g
       inkscape:export-ydpi="96"
       inkscape:export-xdpi="96"
       inkscape:export-filename="C:\Users\parth\Downloads\homebg.png"
       style="opacity:0.8"
       id="g616"
       transform="matrix(0.36921341,0,0,0.34316433,-3.0853277,14.959243)">
      <path
         id="path608"
         d="m 1161.3,320.3 c 44.2,0 82.9,3.6 104.4,8.9 h -208.8 c 21.4,-5.3 60.2,-8.9 104.4,-8.9 z"
         fill="#ebdfcc"
         clip-rule="evenodd"
         fill-rule="evenodd" />
      <path
         id="path610"
         d="m 1117.5,287.5 c 18.8,0 34.1,15.3 34.1,34.1 0,1.7 -0.1,3.3 -0.4,4.9 h -67.5 c -0.2,-1.6 -0.4,-3.2 -0.4,-4.9 0.1,-18.9 15.3,-34.1 34.2,-34.1 z"
         fill="#ebdfcc"
         clip-rule="evenodd"
         fill-rule="evenodd" />
      <path
         id="path612"
         d="m 1161.3,252.4 c 25.4,0 46,20.6 46,46 0,10.6 -3.6,20.4 -9.6,28.2 H 1125 c -6,-7.8 -9.6,-17.6 -9.6,-28.2 -0.1,-25.5 20.5,-46 45.9,-46 z"
         fill="#ebdfcc"
         clip-rule="evenodd"
         fill-rule="evenodd" />
      <path
         id="path614"
         d="m 1218.1,288.6 c 14.6,0 26.4,11.8 26.4,26.4 0,4.1 -1,8.1 -2.7,11.6 h -47.4 c -1.7,-3.5 -2.7,-7.4 -2.7,-11.6 0.1,-14.6 11.9,-26.4 26.4,-26.4 z"
         fill="#ebdfcc"
         clip-rule="evenodd"
         fill-rule="evenodd" />
    </g>
    <g
       inkscape:export-ydpi="96"
       inkscape:export-xdpi="96"
       inkscape:export-filename="C:\Users\parth\Downloads\homebg.png"
       style="opacity:0.8"
       id="g626"
       transform="matrix(0.36921341,0,0,0.34316433,-3.0853277,14.959243)">
      <path
         id="path618"
         d="m 310.8,236 c 31.8,0 59.6,2.6 75,6.4 h -150 c 15.4,-3.8 43.2,-6.4 75,-6.4 z"
         fill="#ebdfcc"
         clip-rule="evenodd"
         fill-rule="evenodd" />
      <path
         id="path620"
         d="m 277.4,214.6 c 12.5,0 22.6,10.1 22.6,22.6 0,1.1 -0.1,2.2 -0.2,3.3 h -44.7 c -0.2,-1.1 -0.2,-2.2 -0.2,-3.3 -0.1,-12.5 10,-22.6 22.5,-22.6 z"
         fill="#ebdfcc"
         clip-rule="evenodd"
         fill-rule="evenodd" />
      <path
         id="path622"
         d="m 321.8,190.8 c 17,0 30.8,13.8 30.8,30.8 0,7.1 -2.4,13.7 -6.5,18.9 h -48.7 c -4,-5.2 -6.5,-11.8 -6.5,-18.9 0.1,-17 13.9,-30.8 30.9,-30.8 z"
         fill="#ebdfcc"
         clip-rule="evenodd"
         fill-rule="evenodd" />
      <path
         id="path624"
         d="m 351.3,221.8 c 7.1,0 12.9,5.8 12.9,12.9 0,2 -0.5,4 -1.3,5.7 h -23.3 c -0.8,-1.7 -1.3,-3.6 -1.3,-5.7 0,-7.1 5.8,-12.9 13,-12.9 z"
         fill="#ebdfcc"
         clip-rule="evenodd"
         fill-rule="evenodd" />
    </g>
    <g
       inkscape:export-ydpi="96"
       inkscape:export-xdpi="96"
       inkscape:export-filename="C:\Users\parth\Downloads\homebg.png"
       style="opacity:0.8"
       id="g636"
       transform="matrix(0.36921341,0,0,0.34316433,-3.0853277,14.959243)">
      <path
         id="path628"
         d="m 116.7,168.6 c 21.6,0 40.5,1.7 51,4.3 h -102 c 10.5,-2.6 29.4,-4.3 51,-4.3 z"
         fill="#ebdfcc"
         clip-rule="evenodd"
         fill-rule="evenodd" />
      <path
         id="path630"
         d="m 94,154 c 8.5,0 15.4,6.9 15.4,15.4 0,0.8 -0.1,1.5 -0.2,2.2 H 78.8 c -0.1,-0.7 -0.2,-1.5 -0.2,-2.2 0,-8.5 6.9,-15.4 15.4,-15.4 z"
         fill="#ebdfcc"
         clip-rule="evenodd"
         fill-rule="evenodd" />
      <path
         id="path632"
         d="m 108.7,157.2 c 4.9,0 8.9,4 8.9,8.9 0,2.1 -0.7,4 -1.9,5.5 h -14.1 c -1.2,-1.5 -1.9,-3.4 -1.9,-5.5 0.1,-4.9 4.1,-8.9 9,-8.9 z"
         fill="#ebdfcc"
         clip-rule="evenodd"
         fill-rule="evenodd" />
      <path
         id="path634"
         d="m 133.3,138.6 c 12.6,0 22.9,10.3 22.9,22.9 0,3.6 -0.8,7 -2.3,10 h -41.2 c -1.5,-3 -2.3,-6.4 -2.3,-10 0,-12.6 10.3,-22.9 22.9,-22.9 z"
         fill="#ebdfcc"
         clip-rule="evenodd"
         fill-rule="evenodd" />
    </g>
    <g
       inkscape:export-ydpi="96"
       inkscape:export-xdpi="96"
       inkscape:export-filename="C:\Users\parth\Downloads\homebg.png"
       style="opacity:0.8"
       id="g648"
       transform="matrix(0.36921341,0,0,0.34316433,-3.0853277,14.959243)">
      <path
         id="path640"
         d="m 1238.8,188.6 c 14.3,0 26.8,1.1 33.7,2.9 h -67.4 c 6.9,-1.7 19.4,-2.9 33.7,-2.9 z"
         fill="#ebdfcc"
         clip-rule="evenodd"
         fill-rule="evenodd" />
      <path
         id="path642"
         d="m 1223.8,179 c 5.6,0 10.2,4.5 10.2,10.2 0,0.5 0,1 -0.1,1.5 h -20.1 c -0.1,-0.5 -0.1,-1 -0.1,-1.5 0,-5.7 4.5,-10.2 10.1,-10.2 z"
         fill="#ebdfcc"
         clip-rule="evenodd"
         fill-rule="evenodd" />
      <path
         id="path644"
         d="m 1243.8,168.3 c 7.6,0 13.8,6.2 13.8,13.8 0,3.2 -1.1,6.1 -2.9,8.5 h -21.9 c -1.8,-2.3 -2.9,-5.3 -2.9,-8.5 0,-7.6 6.2,-13.8 13.9,-13.8 z"
         fill="#ebdfcc"
         clip-rule="evenodd"
         fill-rule="evenodd" />
      <path
         id="path646"
         d="m 1257,182.2 c 3.2,0 5.8,2.6 5.8,5.8 0,0.9 -0.2,1.8 -0.6,2.6 h -10.5 c -0.4,-0.8 -0.6,-1.6 -0.6,-2.6 0.1,-3.2 2.7,-5.8 5.9,-5.8 z"
         fill="#ebdfcc"
         clip-rule="evenodd"
         fill-rule="evenodd" />
    </g>
  </g>
</svg>
